PathFileType	4	(X/Y/Z)	Patient4_TMGait_0pt7_02_left_38.trc.trc
DataRate	CameraRate	NumFrames	NumMarkers	Units	OrigDataRate	OrigDataStartFrame	OrigNumFrames
86.956521739130	86.956521739130	4	33	mm	86.956521739130	36	       141
Frame#	Time	Sacral			L.Shoulder			Chest			R.Shoulder			Neck			R.ASIS			L.ASIS			R.Thigh.Superior			R.Thigh.Lateral			R.Thigh.Inferior			R.Patella			L.Thigh.Superior			L.Thigh.Lateral			L.Thigh.Inferior			L.Patella			L.Shank.Superior			L.Shank.Lateral			L.Shank.Inferior			R.Shank.Superior			R.Shank.Lateral			R.Shank.Inferior			R.Heel			R.Midfoot.Superior			R.Midfoot.Lateral			R.Toe			L.Heel			L.Midfoot.Lateral			L.Midfoot.Superior			L.Toe			L.Elbow			L.Wrist			R.Elbow			R.Wrist			
		X1	Y1	Z1	X2	Y2	Z2	X3	Y3	Z3	X4	Y4	Z4	X5	Y5	Z5	X6	Y6	Z6	X7	Y7	Z7	X8	Y8	Z8	X9	Y9	Z9	X10	Y10	Z10	X11	Y11	Z11	X12	Y12	Z12	X13	Y13	Z13	X14	Y14	Z14	X15	Y15	Z15	X16	Y16	Z16	X17	Y17	Z17	X18	Y18	Z18	X19	Y19	Z19	X20	Y20	Z20	X21	Y21	Z21	X22	Y22	Z22	X23	Y23	Z23	X24	Y24	Z24	X25	Y25	Z25	X26	Y26	Z26	X27	Y27	Z27	X28	Y28	Z28	X29	Y29	Z29	X30	Y30	Z30	X31	Y31	Z31	X32	Y32	Z32	X33	Y33	Z33	

36	43.882500000000	782.514361928552	1020.741443695233	454.004835223873	1015.577106605359	1395.203751336980	234.060291468016	1114.362653066977	1325.343598553988	397.618451653170	1054.803547260148	1431.508674261191	563.780184864765	1032.946268722883	1471.109068435243	381.851245053464	993.161108867201	928.670607863916	577.661416166554	991.045762214265	935.179161864187	302.738374080958	1013.790545274470	721.278101502915	558.774817767906	918.970290939914	621.527074730238	619.560191394565	995.103231715882	554.978317544967	547.556280245238	976.735733896055	449.827402979807	564.071051597327	1059.178021491920	761.622603971422	344.820813865645	998.152741284946	634.786532867710	276.129089863200	1092.592343494877	570.403630178255	345.170169731169	1105.540698827453	497.443458963865	352.380616478379	1076.915268925628	422.069115847329	341.116727518060	991.010516074220	309.189556774338	280.191130516005	1037.256664117784	195.971589005931	352.164305151499	900.742517780570	386.400769027268	567.302664437355	781.944975902603	341.020541209401	628.154911188568	771.113294198239	234.163150436699	574.015821030655	569.304203956921	147.213592613180	546.417538830190	748.164363375490	126.226770676468	588.323339589869	639.862602514453	106.061346195674	622.159387639103	831.482627581120	35.833363059899	617.909012486506	903.691875862250	40.528322973291	376.495277224255	987.098979394492	36.641789530404	305.744276597869	1066.964063834225	96.947035482877	342.132037375041	1197.610420139007	41.297901799163	330.384855255506	875.523239539550	1060.806520459521	165.281776502880	886.303833035267	799.160051057062	185.661839935853	1124.410634751264	1101.576674558935	687.353794961848	1325.473988906706	1163.804599493703	558.994267004444	
37	43.894000000000	781.966068698033	1023.256064735078	451.844582841902	1016.406643950596	1397.199475752359	232.187966211581	1114.284866079398	1327.516840484698	396.331307563219	1054.262022599260	1434.305235792697	561.885219490968	1033.198178075927	1473.358477015391	379.733703638236	992.208645783120	931.017434329161	576.017986223947	990.430982679538	937.697558220843	301.421983357041	1017.582571516303	725.392872410201	557.238705964147	925.215699151635	623.760759877349	618.540355542894	1003.275418482088	558.289446546210	546.977020333388	985.947520074530	451.706607388981	564.524004425800	1056.070503248095	760.796536863918	340.866080277647	992.229585453871	635.490312752810	273.757672950201	1085.622606697016	569.733620954512	342.773834389346	1097.403047100665	497.103802878074	349.759951706201	1068.599081446314	422.315608216669	338.815252515401	982.248659959745	309.252871061866	278.914187235636	1029.213339167688	196.363502366089	351.109967931363	907.842672980698	389.313166176621	567.354996168089	786.765035780459	348.223682179592	626.710437614032	773.477459097631	241.230378392926	573.661021910538	569.666329046642	161.496481249680	543.549439253637	747.004034199922	133.608667087520	588.867310923327	637.230331975181	118.360637639977	620.950040512315	825.779147722600	38.716667355013	621.019329795422	895.740463695536	40.607104654543	376.362091133706	979.160496823495	36.625458324082	305.696165834655	1059.090697036801	97.009145476296	341.784402169678	1189.649276429445	41.305700186590	330.241151604534	879.393107656494	1061.628894292324	161.783414633485	899.335693447936	800.286932611989	179.945231833311	1115.481894818435	1102.161566867044	686.433876509085	1323.122020809722	1147.134685364016	559.867914795823	
38	43.905500000000	781.289004130181	1025.686852064479	449.832467935421	1017.122250512789	1399.176766040089	230.470395620133	1114.044901679263	1329.706436808441	395.249113842183	1053.421556053309	1437.063224506223	560.173077690319	1033.199249921306	1475.579828343503	377.789429150128	991.227411252803	933.296689151997	574.412609513810	989.665288389041	940.195102827011	300.183025661345	1021.300069901455	729.670162129265	555.623792370858	931.540839253574	626.244295436084	617.636426307927	1011.367496420573	561.940829257433	546.366382396942	995.222805924471	454.021898670367	564.835825983380	1052.664324290646	759.945458646654	337.130944764214	986.107404467061	636.196666885100	271.535303944129	1078.451559235505	569.093497751780	340.530139853440	1089.074282283990	496.812254802445	347.334854095826	1060.146176076837	422.605402797738	336.694736928292	973.422184596537	309.345861190058	277.752736450742	1021.134823821325	196.778969660251	350.153575961849	915.142594806315	392.524707903192	567.461270905822	791.940936832729	355.743328871741	625.279118367103	776.213724208478	248.683291508642	573.360369178916	570.777095387576	175.897457744052	540.600425398204	746.247767137378	141.735710490196	589.540601911527	635.268700078064	131.216161191364	619.782045486061	820.561817646475	42.774205506127	624.536093060644	887.792664627211	40.717270888146	376.283675637009	971.211629655474	36.634136230978	305.687618439107	1051.230545125357	97.055813584046	341.476224972635	1181.675884582076	41.279761356742	330.091907594451	883.437814843714	1062.448314249400	158.115301274900	912.836710342221	801.784222426427	174.231847587002	1106.473754058912	1103.095363154987	685.830223387466	1319.835854715171	1129.395038434660	561.400755166378	
39	43.917000000000	780.490071353440	1027.965578662470	447.961957149446	1017.688904279568	1401.104695428517	228.916392870889	1113.640494062419	1331.835785059909	394.341772730090	1052.324028488989	1439.671704226326	558.655871851259	1032.957183259588	1477.712847587781	376.047776706159	990.221194488006	935.471583201277	572.809392607574	988.781362319015	942.578364548954	298.946802093258	1024.846672951403	734.029169314536	553.888344229293	937.904241923278	628.930512621586	616.840283073461	1019.303909432161	565.878115202730	545.685523771873	1004.518625199639	456.701440235975	565.005965295214	1049.124099223350	759.136689016384	333.694839613251	979.952145092305	636.863624472489	269.548575141225	1071.289420313911	568.473275657101	338.494752873711	1080.778726650066	496.549667739988	345.218661838338	1051.759138993910	422.900048279189	334.857863218092	964.707373114028	309.476182405893	276.755596996337	1013.069439029676	197.188621034191	349.356109973265	922.592074404601	395.976076312022	567.621216943820	797.461503514767	363.458192035331	623.932451614111	779.314857211971	256.406832063912	573.155740941110	572.579770122145	190.252113585227	537.794458373939	745.940304891054	150.411499150077	590.316197736217	634.040703865749	144.365702253651	618.745151585309	815.930386789121	47.911666935971	628.192264222670	879.825385567106	40.867654890973	376.259506220882	963.230458535957	36.680712845028	305.718279228493	1043.358991090320	97.095033477131	341.227637588493	1173.672233516496	41.217937467109	329.946347439646	887.688501893540	1063.224779978805	154.297085135984	926.775893241261	803.643970608091	168.561802597351	1097.537363627758	1104.255350841372	685.574141889345	1315.450249826555	1110.758372396283	563.655248146226	
